# xmcd CD database file
#
# Track frame offsets:
#	150
#	17519
#	40511
#	58321
#	81393
#
# Disc length: 1334 seconds
#
# Revision: 0
# Processed by: cddbd v1.5.2PL0 Copyright (c) Steve Scherf et al.
# Submitted via: CDex 1.70beta3
#
DISCID=36053405
DTITLE=TRI4TH and カルメラ - ホーンズ・ライオット
DYEAR=2017
DGENRE=Jazz
TTITLE0=TRI4TH - N.I.N.K.Y.O
TTITLE1=カルメラ - 追憶の赤い日々
TTITLE2=TRI4TH - GAME CHANGER
TTITLE3=カルメラ - ORANGE
TTITLE4=TRI4TH and カルメラ - HORNS RIOT
EXTD=YEAR: 2017
EXTT0=
EXTT1=
EXTT2=
EXTT3=
EXTT4=
PLAYORDER=
